<svg width="71" height="71" viewBox="0 0 71 71" fill="none" xmlns="http://www.w3.org/2000/svg">
<path fill-rule="evenodd" clip-rule="evenodd" d="M70.7107 35.3553L35.3553 0L0 35.3553L35.3553 70.7107L70.7107 35.3553ZM63.9239 35.6396L35.6396 7.35533L7.35534 35.6396L35.6396 63.9239L63.9239 35.6396Z" fill="black"/>
<path d="M18.8807 40V32.7273H23.2699V33.5085H19.7614V35.9659H23.0426V36.7472H19.7614V39.2188H23.3267V40H18.8807ZM26.8033 40.1136C26.3487 40.1136 25.9474 39.9988 25.5994 39.7692C25.2514 39.5372 24.9792 39.2105 24.7827 38.7891C24.5862 38.3653 24.4879 37.8646 24.4879 37.2869C24.4879 36.714 24.5862 36.2169 24.7827 35.7955C24.9792 35.3741 25.2526 35.0485 25.603 34.8189C25.9534 34.5893 26.3582 34.4744 26.8175 34.4744C27.1726 34.4744 27.4531 34.5336 27.6591 34.652C27.8674 34.768 28.026 34.9006 28.1349 35.0497C28.2462 35.1965 28.3326 35.3172 28.3942 35.4119H28.4652V32.7273H29.3033V40H28.4936V39.1619H28.3942C28.3326 39.2614 28.245 39.3868 28.1314 39.5384C28.0178 39.6875 27.8556 39.8213 27.6449 39.9396C27.4342 40.0556 27.1536 40.1136 26.8033 40.1136ZM26.9169 39.3608C27.2531 39.3608 27.5372 39.2732 27.7692 39.098C28.0012 38.9205 28.1776 38.6754 28.2983 38.3629C28.419 38.0481 28.4794 37.6847 28.4794 37.2727C28.4794 36.8655 28.4202 36.5092 28.3018 36.2038C28.1835 35.8961 28.0083 35.657 27.7763 35.4865C27.5443 35.3137 27.2578 35.2273 26.9169 35.2273C26.5618 35.2273 26.2659 35.3184 26.0291 35.5007C25.7947 35.6806 25.6184 35.9257 25.5 36.2358C25.384 36.5436 25.326 36.8892 25.326 37.2727C25.326 37.661 25.3852 38.0137 25.5036 38.331C25.6243 38.6458 25.8018 38.8968 26.0362 39.0838C26.273 39.2685 26.5665 39.3608 26.9169 39.3608ZM30.9545 40V34.5455H31.7926V40H30.9545ZM31.3807 33.6364C31.2173 33.6364 31.0765 33.5807 30.9581 33.4695C30.8421 33.3582 30.7841 33.2244 30.7841 33.0682C30.7841 32.9119 30.8421 32.7782 30.9581 32.6669C31.0765 32.5556 31.2173 32.5 31.3807 32.5C31.544 32.5 31.6837 32.5556 31.7997 32.6669C31.9181 32.7782 31.9773 32.9119 31.9773 33.0682C31.9773 33.2244 31.9181 33.3582 31.7997 33.4695C31.6837 33.5807 31.544 33.6364 31.3807 33.6364ZM35.6998 34.5455V35.2557H32.873V34.5455H35.6998ZM33.6969 33.2386H34.535V38.4375C34.535 38.6742 34.5693 38.8518 34.638 38.9702C34.709 39.0862 34.7989 39.1643 34.9078 39.2045C35.0191 39.2424 35.1363 39.2614 35.2594 39.2614C35.3517 39.2614 35.4275 39.2566 35.4867 39.2472C35.5459 39.2353 35.5932 39.2259 35.6287 39.2188L35.7992 39.9716C35.7424 39.9929 35.6631 40.0142 35.5613 40.0355C35.4595 40.0592 35.3304 40.071 35.1742 40.071C34.9374 40.071 34.7054 40.0201 34.4782 39.9183C34.2533 39.8165 34.0662 39.6615 33.9171 39.4531C33.7703 39.2448 33.6969 38.982 33.6969 38.6648V33.2386ZM37.1912 40V32.7273H39.6486C40.2192 32.7273 40.6855 32.8303 41.0478 33.0362C41.4123 33.2398 41.6822 33.5156 41.8574 33.8636C42.0326 34.2116 42.1202 34.5999 42.1202 35.0284C42.1202 35.4569 42.0326 35.8464 41.8574 36.1967C41.6846 36.5471 41.4171 36.8265 41.0549 37.0348C40.6926 37.2408 40.2286 37.3438 39.6628 37.3438H37.9015V36.5625H39.6344C40.025 36.5625 40.3387 36.495 40.5755 36.3601C40.8122 36.2251 40.9838 36.0429 41.0904 35.8132C41.1993 35.5812 41.2537 35.3196 41.2537 35.0284C41.2537 34.7372 41.1993 34.4768 41.0904 34.2472C40.9838 34.0175 40.811 33.8376 40.5719 33.7074C40.3328 33.5748 40.0156 33.5085 39.6202 33.5085H38.0719V40H37.1912ZM43.4252 40V34.5455H44.2349V35.3693H44.2917C44.3912 35.0994 44.5711 34.8804 44.8315 34.7124C45.0919 34.5443 45.3855 34.4602 45.7122 34.4602C45.7737 34.4602 45.8507 34.4614 45.943 34.4638C46.0353 34.4661 46.1052 34.4697 46.1525 34.4744V35.3267C46.1241 35.3196 46.059 35.3089 45.9572 35.2947C45.8578 35.2782 45.7524 35.2699 45.6412 35.2699C45.376 35.2699 45.1393 35.3255 44.9309 35.4368C44.725 35.5457 44.5616 35.6972 44.4409 35.8913C44.3225 36.0831 44.2633 36.3021 44.2633 36.5483V40H43.4252ZM49.1958 40.1136C48.7034 40.1136 48.2714 39.9964 47.8997 39.7621C47.5304 39.5277 47.2415 39.1998 47.0332 38.7784C46.8272 38.357 46.7243 37.8646 46.7243 37.3011C46.7243 36.733 46.8272 36.237 47.0332 35.8132C47.2415 35.3894 47.5304 35.0604 47.8997 34.826C48.2714 34.5916 48.7034 34.4744 49.1958 34.4744C49.6883 34.4744 50.1191 34.5916 50.4885 34.826C50.8601 35.0604 51.149 35.3894 51.3549 35.8132C51.5633 36.237 51.6674 36.733 51.6674 37.3011C51.6674 37.8646 51.5633 38.357 51.3549 38.7784C51.149 39.1998 50.8601 39.5277 50.4885 39.7621C50.1191 39.9964 49.6883 40.1136 49.1958 40.1136ZM49.1958 39.3608C49.5699 39.3608 49.8777 39.2649 50.1191 39.0732C50.3606 38.8814 50.5394 38.6293 50.6554 38.3168C50.7714 38.0043 50.8294 37.6657 50.8294 37.3011C50.8294 36.9366 50.7714 36.5968 50.6554 36.282C50.5394 35.9671 50.3606 35.7126 50.1191 35.5185C49.8777 35.3243 49.5699 35.2273 49.1958 35.2273C48.8218 35.2273 48.514 35.3243 48.2725 35.5185C48.0311 35.7126 47.8523 35.9671 47.7363 36.282C47.6203 36.5968 47.5623 36.9366 47.5623 37.3011C47.5623 37.6657 47.6203 38.0043 47.7363 38.3168C47.8523 38.6293 48.0311 38.8814 48.2725 39.0732C48.514 39.2649 48.8218 39.3608 49.1958 39.3608Z" fill="#FF9D00"/>
<mask id="path-3-inside-1_19_16" fill="white">
<path fill-rule="evenodd" clip-rule="evenodd" d="M29.8572 45.8572C28.7143 47.0002 28.7143 48.8534 29.8572 49.9964L34.9371 55.0762L34.9716 55.0416L35.0629 55.1329L40.1428 50.0531C41.2857 48.9101 41.2857 47.057 40.1428 45.914C38.9998 44.771 37.1466 44.771 36.0036 45.914L35.0284 46.8893L33.9964 45.8572C32.8534 44.7143 31.0002 44.7143 29.8572 45.8572Z"/>
</mask>
<path d="M29.8572 49.9964L29.1501 50.7035L29.8572 49.9964ZM34.9371 55.0762L34.23 55.7833L34.9371 56.4904L35.6442 55.7833L34.9371 55.0762ZM34.9716 55.0416L35.6787 54.3345L34.9716 53.6274L34.2645 54.3345L34.9716 55.0416ZM35.0629 55.1329L34.3558 55.84L35.0629 56.5471L35.77 55.84L35.0629 55.1329ZM40.1428 50.0531L40.8499 50.7602L40.8499 50.7602L40.1428 50.0531ZM40.1428 45.914L39.4356 46.6211L39.4356 46.6211L40.1428 45.914ZM36.0036 45.914L35.2965 45.2069L35.2965 45.2069L36.0036 45.914ZM35.0284 46.8893L34.3213 47.5964L35.0284 48.3035L35.7355 47.5964L35.0284 46.8893ZM33.9964 45.8572L33.2892 46.5643L33.2892 46.5643L33.9964 45.8572ZM30.5643 49.2892C29.8119 48.5368 29.8119 47.3168 30.5643 46.5643L29.1501 45.1501C27.6166 46.6836 27.6166 49.17 29.1501 50.7035L30.5643 49.2892ZM35.6442 54.3691L30.5643 49.2892L29.1501 50.7035L34.23 55.7833L35.6442 54.3691ZM34.2645 54.3345L34.23 54.3691L35.6442 55.7833L35.6787 55.7487L34.2645 54.3345ZM34.2645 55.7487L34.3558 55.84L35.77 54.4258L35.6787 54.3345L34.2645 55.7487ZM35.77 55.84L40.8499 50.7602L39.4356 49.346L34.3558 54.4258L35.77 55.84ZM40.8499 50.7602C42.3834 49.2267 42.3834 46.7404 40.8499 45.2069L39.4356 46.6211C40.1881 47.3735 40.1881 48.5935 39.4356 49.346L40.8499 50.7602ZM40.8499 45.2069C39.3164 43.6734 36.83 43.6734 35.2965 45.2069L36.7107 46.6211C37.4632 45.8686 38.6832 45.8686 39.4356 46.6211L40.8499 45.2069ZM35.2965 45.2069L34.3213 46.1821L35.7355 47.5964L36.7107 46.6211L35.2965 45.2069ZM33.2892 46.5643L34.3213 47.5964L35.7355 46.1821L34.7035 45.1501L33.2892 46.5643ZM30.5643 46.5643C31.3168 45.8119 32.5368 45.8119 33.2892 46.5643L34.7035 45.1501C33.17 43.6166 30.6836 43.6166 29.1501 45.1501L30.5643 46.5643Z" fill="#EA9013" mask="url(#path-3-inside-1_19_16)"/>
</svg>
